<!-- sprite6.svg -->
<svg id="source-svg" xmlns="http://www.w3.org/2000/svg" viewBox="0 0 200 120">
    <!-- Enemy Type 6 (Moon) - Frame 1 -->
    <g id="enemy6-1" transform="translate(10,10)">
        <path d="M6 0 L14 0 L18 4 L18 14 L14 18 L6 18 L2 14 L2 16 L0 16 L0 2 L2 2 L2 4 L6 0" fill="#fff" />
        <rect x="6" y="6" width="3" height="3" fill="#000"/>
        <rect x="12" y="6" width="3" height="3" fill="#000"/>
        <path d="M2 14 L0 16 L2 18 L6 17 L10 18 L14 17 L18 18 L18 14" fill="#fff" />
    </g>

    <!-- Frame 2 -->
    <g id="enemy6-2" transform="translate(40,10)">
        <path d="M6 0 L14 0 L18 4 L18 14 L14 18 L6 18 L2 14 L2 16 L0 16 L0 2 L2 2 L2 4 L6 0" fill="#fff" />
        <rect x="6" y="6" width="3" height="3" fill="#000"/>
        <rect x="12" y="6" width="3" height="3" fill="#000"/>
        <path d="M2 14 L0 16 L2 19 L6 18 L10 19 L14 18 L18 19 L18 14" fill="#fff" />
    </g>

    <!-- Frame 3 -->
    <g id="enemy6-3" transform="translate(70,10)">
        <path d="M6 0 L14 0 L18 4 L18 14 L14 18 L6 18 L2 14 L2 16 L0 16 L0 2 L2 2 L2 4 L6 0" fill="#fff" />
        <rect x="6" y="5" width="3" height="3" fill="#000"/>
        <rect x="12" y="5" width="3" height="3" fill="#000"/>
        <path d="M2 14 L0 16 L2 20 L6 19 L10 20 L14 19 L18 20 L18 14" fill="#fff" />
    </g>

    <!-- Frame 4 -->
    <g id="enemy6-4" transform="translate(100,10)">
        <path d="M6 0 L14 0 L18 4 L18 14 L14 18 L6 18 L2 14 L2 16 L0 16 L0 2 L2 2 L2 4 L6 0" fill="#fff" />
        <rect x="6" y="4" width="3" height="3" fill="#000"/>
        <rect x="12" y="4" width="3" height="3" fill="#000"/>
        <path d="M2 14 L0 16 L2 21 L6 20 L10 21 L14 20 L18 21 L18 14" fill="#fff" />
    </g>

    <!-- Frame 5 -->
    <g id="enemy6-5" transform="translate(130,10)">
        <path d="M6 0 L14 0 L18 4 L18 14 L14 18 L6 18 L2 14 L2 16 L0 16 L0 2 L2 2 L2 4 L6 0" fill="#fff" />
        <rect x="6" y="5" width="3" height="3" fill="#000"/>
        <rect x="12" y="5" width="3" height="3" fill="#000"/>
        <path d="M2 14 L0 16 L2 20 L6 19 L10 20 L14 19 L18 20 L18 14" fill="#fff" />
    </g>

    <!-- Frame 6 -->
    <g id="enemy6-6" transform="translate(160,10)">
        <path d="M6 0 L14 0 L18 4 L18 14 L14 18 L6 18 L2 14 L2 16 L0 16 L0 2 L2 2 L2 4 L6 0" fill="#fff" />
        <rect x="6" y="6" width="3" height="3" fill="#000"/>
        <rect x="12" y="6" width="3" height="3" fill="#000"/>
        <path d="M2 14 L0 16 L2 19 L6 18 L10 19 L14 18 L18 19 L18 14" fill="#fff" />
    </g>

    <!-- Frame 7 -->
    <g id="enemy6-7" transform="translate(10,40)">
        <path d="M6 0 L14 0 L18 4 L18 14 L14 18 L6 18 L2 14 L2 16 L0 16 L0 2 L2 2 L2 4 L6 0" fill="#fff" />
        <rect x="6" y="7" width="3" height="3" fill="#000"/>
        <rect x="12" y="7" width="3" height="3" fill="#000"/>
        <path d="M2 14 L0 16 L2 18 L6 17 L10 18 L14 17 L18 18 L18 14" fill="#fff" />
    </g>

    <!-- Frame 8 -->
    <g id="enemy6-8" transform="translate(40,40)">
        <path d="M6 0 L14 0 L18 4 L18 14 L14 18 L6 18 L2 14 L2 16 L0 16 L0 2 L2 2 L2 4 L6 0" fill="#fff" />
        <rect x="6" y="6" width="3" height="3" fill="#000"/>
        <rect x="12" y="6" width="3" height="3" fill="#000"/>
        <path d="M2 14 L0 16 L2 17 L6 16 L10 17 L14 16 L18 17 L18 14" fill="#fff" />
    </g>
</svg>