<!-- sprite5.svg -->
<svg id="source-svg" xmlns="http://www.w3.org/2000/svg" viewBox="0 0 200 120">
    <!-- Enemy Type 5 (Spider) - Frame 1 -->
    <g id="enemy5-1" transform="translate(10,10)">
        <path d="M8 0 L12 0 L16 4 L16 8 L18 10 L16 12 L16 14 L12 18 L8 18 L4 14 L4 12 L2 10 L4 8 L4 4 L8 0" fill="#ffcccc" />
        <rect x="6" y="6" width="2" height="4" fill="#000"/>
        <rect x="12" y="6" width="2" height="4" fill="#000"/>
        <path d="M6 18 L4 20 L8 19 L10 20 L12 19 L16 20 L14 18" fill="#ffcccc" />
    </g>

    <!-- Frame 2 -->
    <g id="enemy5-2" transform="translate(40,10)">
        <path d="M8 1 L12 1 L16 5 L16 9 L18 11 L16 13 L16 15 L12 19 L8 19 L4 15 L4 13 L2 11 L4 9 L4 5 L8 1" fill="#ffcccc" />
        <rect x="6" y="7" width="2" height="4" fill="#000"/>
        <rect x="12" y="7" width="2" height="4" fill="#000"/>
        <path d="M6 19 L4 21 L8 20 L10 21 L12 20 L16 21 L14 19" fill="#ffcccc" />
    </g>

    <!-- Frame 3 -->
    <g id="enemy5-3" transform="translate(70,10)">
        <path d="M8 2 L12 2 L16 6 L16 10 L18 12 L16 14 L16 16 L12 20 L8 20 L4 16 L4 14 L2 12 L4 10 L4 6 L8 2" fill="#ffcccc" />
        <rect x="6" y="8" width="2" height="4" fill="#000"/>
        <rect x="12" y="8" width="2" height="4" fill="#000"/>
        <path d="M6 20 L4 22 L8 21 L10 22 L12 21 L16 22 L14 20" fill="#ffcccc" />
    </g>

    <!-- Frame 4 -->
    <g id="enemy5-4" transform="translate(100,10)">
        <path d="M8 3 L12 3 L16 7 L16 11 L18 13 L16 15 L16 17 L12 21 L8 21 L4 17 L4 15 L2 13 L4 11 L4 7 L8 3" fill="#ffcccc" />
        <rect x="6" y="9" width="2" height="4" fill="#000"/>
        <rect x="12" y="9" width="2" height="4" fill="#000"/>
        <path d="M6 21 L4 23 L8 22 L10 23 L12 22 L16 23 L14 21" fill="#ffcccc" />
    </g>

    <!-- Frame 5 -->
    <g id="enemy5-5" transform="translate(130,10)">
        <path d="M8 2 L12 2 L16 6 L16 10 L18 12 L16 14 L16 16 L12 20 L8 20 L4 16 L4 14 L2 12 L4 10 L4 6 L8 2" fill="#ffcccc" />
        <rect x="6" y="8" width="2" height="4" fill="#000"/>
        <rect x="12" y="8" width="2" height="4" fill="#000"/>
        <path d="M6 20 L4 22 L8 21 L10 22 L12 21 L16 22 L14 20" fill="#ffcccc" />
    </g>

    <!-- Frame 6 -->
    <g id="enemy5-6" transform="translate(160,10)">
        <path d="M8 1 L12 1 L16 5 L16 9 L18 11 L16 13 L16 15 L12 19 L8 19 L4 15 L4 13 L2 11 L4 9 L4 5 L8 1" fill="#ffcccc" />
        <rect x="6" y="7" width="2" height="4" fill="#000"/>
        <rect x="12" y="7" width="2" height="4" fill="#000"/>
        <path d="M6 19 L4 21 L8 20 L10 21 L12 20 L16 21 L14 19" fill="#ffcccc" />
    </g>

    <!-- Frame 7 -->
    <g id="enemy5-7" transform="translate(10,40)">
        <path d="M8 0 L12 0 L16 4 L16 8 L18 10 L16 12 L16 14 L12 18 L8 18 L4 14 L4 12 L2 10 L4 8 L4 4 L8 0" fill="#ffcccc" />
        <rect x="6" y="6" width="2" height="4" fill="#000"/>
        <rect x="12" y="6" width="2" height="4" fill="#000"/>
        <path d="M6 18 L4 20 L8 19 L10 20 L12 19 L16 20 L14 18" fill="#ffcccc" />
    </g>

    <!-- Frame 8 -->
    <g id="enemy5-8" transform="translate(40,40)">
        <path d="M8 0 L12 0 L16 4 L16 8 L18 10 L16 12 L16 14 L12 18 L8 18 L4 14 L4 12 L2 10 L4 8 L4 4 L8 0" fill="#ffcccc" />
        <rect x="6" y="6" width="2" height="4" fill="#000"/>
        <rect x="12" y="6" width="2" height="4" fill="#000"/>
        <path d="M6 18 L4 19 L8 18.5 L10 19 L12 18.5 L16 19 L14 18" fill="#ffcccc" />
    </g>
</svg>