<svg xmlns="http://www.w3.org/2000/svg" viewBox="0 0 128 32">
  <!-- Background -->
  <rect width="128" height="32" fill="#000"/>
  
  <!-- Key (index 0) -->
  <g transform="translate(0,0)">
    <!-- Key head -->
    <circle cx="10" cy="16" r="6" fill="#FFFF00"/>
    <circle cx="10" cy="16" r="3" fill="#000"/>
    <!-- Key shaft -->
    <rect x="16" y="14" width="12" height="4" fill="#FFFF00"/>
    <!-- Key teeth -->
    <rect x="20" y="18" width="2" height="4" fill="#FFFF00"/>
    <rect x="24" y="18" width="2" height="6" fill="#FFFF00"/>
  </g>
  
  <!-- Sword (index 1) -->
  <g transform="translate(32,0)">
    <!-- Blade -->
    <rect x="14" y="4" width="4" height="20" fill="#FFFFFF"/>
    <!-- Handle -->
    <rect x="12" y="24" width="8" height="4" fill="#FFFF00"/>
    <!-- Guard -->
    <rect x="10" y="20" width="12" height="4" fill="#FFFF00"/>
  </g>
  
  <!-- Full Heart (index 2) -->
  <g transform="translate(64,0)">
    <path d="M16 8 L24 8 L28 12 L28 16 L16 28 L4 16 L4 12 L8 8 L16 8" fill="#FF0000"/>
  </g>
  
  <!-- Empty Heart (index 3) -->
  <g transform="translate(96,0)">
    <path d="M16 8 L24 8 L28 12 L28 16 L16 28 L4 16 L4 12 L8 8 L16 8" fill="#7C7C7C"/>
  </g>
</svg>
